# xmcd
#
# Track frame offsets:
#	183
#	21230
#	35660
#	54103
#	106120
#	120045
#	141050
#	160033
#	238090
#	277048
#	295355
#
# Disc length: 4226 seconds
# Revision: 0
# Processed by: cddbd v1.5.2PL0 Copyright (c) Steve Scherf et al.
# Submitted via: dBpowerAMP V12.0
#
DISCID=8f10800b
DTITLE=Stevie Ray Vaughan - Paradiso Amsterdam
DYEAR=1983
DGENRE=Blues
TTITLE0=Pretty Guy Shuffle
TTITLE1=Tell Me
TTITLE2=Mary Had a Little Lamb
TTITLE3=Texas Flood
TTITLE4=Love Struck Baby
TTITLE5=You'll Be Mine
TTITLE6=Pride and Joy
TTITLE7=Little Wing
TTITLE8=Lenny
TTITLE9=Rude Mood
TTITLE10=Testify
EXTD=
EXTT0=
EXTT1=
EXTT2=
EXTT3=
EXTT4=
EXTT5=
EXTT6=
EXTT7=
EXTT8=
EXTT9=
EXTT10=
PLAYORDER=
